/* XPM */
static char * wall_xpm[] = {
"29 29 6 1",
" 	c None",
".	c #754C60",
"+	c #C49A6C",
"@	c #B68962",
"#	c #AA7959",
"$	c #90625D",
"                             ",
"   ..  ..   ..   ...   ..    ",
"  .++..++. .++. .+++. .++.   ",
" .+@@#+@@+.+@@+.+@@@+.+@@+.  ",
" .@@@#@@@@$@@@@$@@@@@$@@@@.  ",
" .@##$@##@$@###$@@##@$@##@.  ",
" .#$$$#$$#$#$$$$##$$#$#$$#.  ",
" .$++$$++$$$+++$$$++$#$++$.  ",
" .+@@$+@@+$+@@@+$+@@+#+@@+.  ",
" .@@@$@@@@$@@@@@$@@@@#@@@@.  ",
" .@##$###@$@@@@@$@@@@$###@.  ",
" .#$$$$$$#$@##@@$##@@$$$$#.  ",
" .$++$+++$$#$$##$$$##$+++$.  ",
" .+@$@@@@+$$++$$$++$$+@@@+.  ",
" .@@$@@@@@#+@@+$+@@+$@@@@@.  ",
" .@@$@@##@#@@@@$@@@@$@@@@@.  ",
" .@#$@#$$##@###$@@##$@@##@.  ",
" .#$$#$++$$#$$$$##$$$##$$#.  ",
" .$++$+@@+$$+++$$$++$$$++$.  ",
" .+@@#@@@@$+@@@+$+@@+#+@@+.  ",
" .@@@#@@@@$@@@@@$@@@@#@@@@.  ",
" .@##$@##@$@###@$@##@#@##@.  ",
" .#$$$#$$#$#$$$#$#$$###$$#.  ",
" .$++$$++$$$+++$$$++$$$++$.  ",
" .+@@$+@@+$+@@@+#+@@+$+@@+.  ",
" .@@@$@@@@#@@@@@#@@@@$@@@@.  ",
" .@@@$@@@@@#@@@@$@@@@$@@@@.  ",
" .###$#####$####$####$####.  ",
" .$$$$$$$$$$$$$$$$$$$$$$$$.  "};
